<svg width="256" height="256" viewBox="0 0 256 256" xmlns="http://www.w3.org/2000/svg">
  <defs>
    <linearGradient id="bgGrad" x1="0%" y1="0%" x2="100%" y2="100%">
      <stop offset="0%" stop-color="#4F7CFF"/>
      <stop offset="100%" stop-color="#2E4FD9"/>
    </linearGradient>
    <linearGradient id="fileGrad" x1="0%" y1="0%" x2="0%" y2="100%">
      <stop offset="0%" stop-color="#FFFFFF"/>
      <stop offset="100%" stop-color="#E8ECF7"/>
    </linearGradient>
    <linearGradient id="glassGrad" x1="0%" y1="0%" x2="100%" y2="100%">
      <stop offset="0%" stop-color="#FFFFFF" stop-opacity="0.95"/>
      <stop offset="100%" stop-color="#D6E0FF" stop-opacity="0.85"/>
    </linearGradient>
    <filter id="softShadow" x="-30%" y="-30%" width="160%" height="160%">
      <feDropShadow dx="0" dy="6" stdDeviation="10" flood-color="#1A2B7A" flood-opacity="0.35"/>
    </filter>
  </defs>

  <rect x="0" y="0" width="256" height="256" rx="56" fill="url(#bgGrad)"/>

  <g filter="url(#softShadow)">
    <path d="M84 60 h58 l30 30 v96 a10 10 0 0 1 -10 10 h-78 a10 10 0 0 1 -10 -10 v-116 a10 10 0 0 1 10 -10 z"
          fill="url(#fileGrad)"/>
    <path d="M142 60 v22 a8 8 0 0 0 8 8 h22 z" fill="#C3CEEA"/>

    <rect x="98" y="112" width="60" height="8" rx="4" fill="#AEB9DE"/>
    <rect x="98" y="130" width="60" height="8" rx="4" fill="#AEB9DE"/>
    <rect x="98" y="148" width="38" height="8" rx="4" fill="#AEB9DE"/>
  </g>

  <g filter="url(#softShadow)">
    <circle cx="163" cy="150" r="42" fill="url(#glassGrad)" stroke="#FFFFFF" stroke-width="6"/>
    <circle cx="163" cy="150" r="42" fill="none" stroke="#2E4FD9" stroke-width="5" opacity="0.55"/>
    <line x1="193" y1="180" x2="222" y2="209" stroke="#2E4FD9" stroke-width="16" stroke-linecap="round"/>
    <line x1="193" y1="180" x2="222" y2="209" stroke="#FFFFFF" stroke-width="6" stroke-linecap="round" opacity="0.6"/>
  </g>
</svg>
