<svg width="1200" height="280" viewBox="0 0 1200 280" xmlns="http://www.w3.org/2000/svg">
  <defs>
    <linearGradient id="bannerBg" x1="0%" y1="0%" x2="100%" y2="100%">
      <stop offset="0%" stop-color="#1e1f26"/>
      <stop offset="100%" stop-color="#12131a"/>
    </linearGradient>
    <linearGradient id="accentGrad" x1="0%" y1="0%" x2="100%" y2="0%">
      <stop offset="0%" stop-color="#4F7CFF"/>
      <stop offset="100%" stop-color="#88C0D0"/>
    </linearGradient>
    <radialGradient id="glow" cx="50%" cy="50%" r="50%">
      <stop offset="0%" stop-color="#4F7CFF" stop-opacity="0.35"/>
      <stop offset="100%" stop-color="#4F7CFF" stop-opacity="0"/>
    </radialGradient>
    <linearGradient id="fileGrad2" x1="0%" y1="0%" x2="0%" y2="100%">
      <stop offset="0%" stop-color="#FFFFFF"/>
      <stop offset="100%" stop-color="#E8ECF7"/>
    </linearGradient>
  </defs>

  <rect width="1200" height="280" fill="url(#bannerBg)"/>
  <circle cx="140" cy="140" r="220" fill="url(#glow)"/>
  <circle cx="1060" cy="200" r="180" fill="url(#glow)"/>

  <g transform="translate(60, 60)">
    <rect x="0" y="0" width="160" height="160" rx="36" fill="url(#accentGrad)"/>
    <path d="M52 38 h36 l19 19 v60 a6 6 0 0 1 -6 6 h-49 a6 6 0 0 1 -6 -6 v-73 a6 6 0 0 1 6 -6 z"
          fill="url(#fileGrad2)" transform="translate(0,4)"/>
    <path d="M88 38 v14 a5 5 0 0 0 5 5 h14 z" fill="#C3CEEA" transform="translate(0,4)"/>
    <circle cx="102" cy="98" r="26" fill="none" stroke="#FFFFFF" stroke-width="8"/>
    <line x1="120" y1="116" x2="138" y2="134" stroke="#FFFFFF" stroke-width="10" stroke-linecap="round"/>
  </g>

  <text x="270" y="130" font-family="Segoe UI, Arial, sans-serif" font-size="64" font-weight="700" fill="#FFFFFF">FasdQuery</text>
  <text x="272" y="168" font-family="Segoe UI, Arial, sans-serif" font-size="22" fill="#9AA3B5">Instant file search engine for Linux — written in modern C++ and Qt6</text>

  <g transform="translate(272, 195)">
    <rect x="0" y="0" width="118" height="32" rx="16" fill="none" stroke="#4F7CFF" stroke-width="1.5"/>
    <text x="59" y="21" font-family="Segoe UI, Arial, sans-serif" font-size="14" fill="#88C0D0" text-anchor="middle">C++17</text>
  </g>
  <g transform="translate(402, 195)">
    <rect x="0" y="0" width="98" height="32" rx="16" fill="none" stroke="#4F7CFF" stroke-width="1.5"/>
    <text x="49" y="21" font-family="Segoe UI, Arial, sans-serif" font-size="14" fill="#88C0D0" text-anchor="middle">Qt6</text>
  </g>
  <g transform="translate(512, 195)">
    <rect x="0" y="0" width="132" height="32" rx="16" fill="none" stroke="#4F7CFF" stroke-width="1.5"/>
    <text x="66" y="21" font-family="Segoe UI, Arial, sans-serif" font-size="14" fill="#88C0D0" text-anchor="middle">CMake</text>
  </g>
  <g transform="translate(656, 195)">
    <rect x="0" y="0" width="128" height="32" rx="16" fill="none" stroke="#4F7CFF" stroke-width="1.5"/>
    <text x="64" y="21" font-family="Segoe UI, Arial, sans-serif" font-size="14" fill="#88C0D0" text-anchor="middle">GPL-3.0</text>
  </g>
</svg>
